<?xml version="1.0" standalone="no"?>
<!DOCTYPE svg PUBLIC "-//W3C//DTD SVG 20010904//EN"
 "http://www.w3.org/TR/2001/REC-SVG-20010904/DTD/svg10.dtd">
<svg version="1.0" xmlns="http://www.w3.org/2000/svg"
 width="302.000000pt" height="302.000000pt" viewBox="0 0 302.000000 302.000000"
 preserveAspectRatio="xMidYMid meet">
<metadata>
Created by potrace 1.11, written by Peter Selinger 2001-2013
</metadata>
<g transform="translate(0.000000,302.000000) scale(0.100000,-0.100000)"
fill="#000000" stroke="none">
<path d="M2495 2646 c-36 -15 -87 -71 -114 -124 -16 -32 -52 -68 -174 -174
-30 -27 -166 -149 -211 -190 -23 -21 -50 -38 -61 -38 -11 0 -25 -8 -32 -19 -6
-10 -28 -21 -50 -24 -49 -8 -83 -39 -83 -76 0 -20 -9 -36 -32 -54 -18 -14 -45
-36 -60 -49 -36 -32 -61 -53 -149 -128 -53 -45 -91 -69 -124 -78 -46 -12 -105
-62 -105 -89 0 -6 -15 -22 -32 -34 -34 -23 -107 -99 -108 -111 0 -9 -41 -1
-51 9 -4 5 -9 19 -11 33 -3 22 -8 25 -50 28 -32 2 -48 8 -48 17 0 8 -16 16
-41 20 -29 5 -43 14 -51 31 -15 31 -26 30 -90 -7 -69 -41 -85 -55 -120 -108
-33 -53 -38 -131 -12 -187 19 -40 87 -84 128 -84 17 0 37 -11 52 -27 36 -39
28 -81 -35 -177 -56 -87 -57 -95 -21 -193 24 -66 183 -390 216 -441 2 -4 50
-8 189 -17 55 -3 127 -8 160 -11 33 -2 97 -6 143 -9 l82 -5 0 28 c1 15 7 38
14 50 11 20 9 39 -11 125 -13 55 -42 148 -63 206 -49 127 -50 146 -10 166 48
25 52 43 46 198 -3 78 -8 156 -11 172 -3 17 -8 46 -11 65 -3 19 -9 40 -14 45
-15 20 -29 82 -31 140 -1 34 -10 76 -20 96 l-18 36 136 114 c74 63 139 116
145 118 6 2 8 -8 4 -25 -6 -31 -14 -85 -21 -145 -6 -42 -71 -242 -88 -270 -6
-10 -27 -22 -45 -25 -18 -4 -34 -10 -37 -14 -3 -5 4 -48 15 -96 12 -49 23
-113 27 -144 3 -30 9 -59 13 -63 4 -4 25 7 47 25 23 18 52 42 67 52 20 14 26
27 26 55 0 29 7 42 37 67 44 37 45 41 48 324 2 107 3 202 4 211 1 9 18 28 39
41 40 27 105 142 117 207 3 19 16 42 28 51 12 10 33 28 47 40 14 12 91 79 172
148 121 103 152 125 180 127 43 1 116 44 146 84 24 33 29 90 10 109 -16 16
-55 15 -93 -2z m-1148 -1171 c57 -26 71 -44 75 -100 l3 -39 -135 -46 c-74 -25
-143 -44 -152 -42 -27 5 -22 26 11 45 35 21 47 60 27 89 -19 27 -12 46 38 90
45 41 46 41 133 3z"/>
</g>
</svg>
