<svg id="Layer_1" data-name="Layer 1" xmlns="http://www.w3.org/2000/svg" viewBox="0 0 255.12 255.12"><defs><style>.cls-1{fill:#1d1d1b;}.cls-2{fill:#e8602e;}.cls-3{fill:#fcf9f8;}</style></defs><title>endeligLogo</title><path class="cls-1" d="M43.38,116.93c-4.18,2.4-6.27,3.6-6.46,3.73a27.65,27.65,0,0,0-7.47,7.48,20.3,20.3,0,0,0-3.74,10.53,16.74,16.74,0,0,0,2.38,9.85A16.09,16.09,0,0,0,35.9,155c3.61,1.29,5.58.25,8.5,2.37a9,9,0,0,1,3.06,3.74,10,10,0,0,1,0,6.8c-.65,2.24-1.48,3.26-4.42,7.47-5.18,7.41-5.66,8.64-5.78,10.19,0,.74,0,1.7,1.7,6.8,2.17,6.38,3.74,9.85,3.74,9.85,4.78,10.58,9.17,19,9.17,19,2.66,5.12,6.08,11.57,10.19,19L118.8,244a10.27,10.27,0,0,1,0-4.42c.5-2.19,1.51-3,2-4.76.76-2.55-.12-4.88-.68-6.45-2.86-8.08.09-4.45-5.44-19.71-4.92-13.58-7.61-17.39-5.43-20.38,1.67-2.31,4.53-1.78,6.45-5.1,1.24-2.13,1.13-4.2,1-7.13-.5-13.23.29-6.74-.34-13.93-1.12-12.75-1.68-19.13-3.06-22.08-1.22-2.63-2.91-5.23-3.39-9.51-.17-1.47-.33-4.28-.39-6.61-.1-3.36,0-4.06-.39-5.6s-.61-1-2.61-5.21c-1.15-2.38-1.54-3.49-2.87-4.56a4.46,4.46,0,0,0-2.34-1.17c-.89-.11-2,.36-4,1.3-1.5.68-2.32,1.14-2.61,1.3-1.55.89-2.34,1.35-2.73,2.09-.5.92-.17,1.44-.78,2.08s-1.26.33-1.83.91-.4,1.32-.39,3.26a14.88,14.88,0,0,1-.13,3.39c-.72,2.36-3.21,2.73-3.12,3.91.07.93,1.69,1.4,3.9,2.21,5.67,2.08,9.21,3.43,10.69,6.25a14.57,14.57,0,0,1,.91,4c.4,2.61.64,4.27-.26,5.47A4.38,4.38,0,0,1,98.11,145c-3.57.67-6.94,2.19-10.42,3.25-6.1,1.87-10.38,4.71-14.59,4.43-1.57-.1-2-.56-2.22-.91-.49-1,.8-2.56,1.05-2.87,1.48-1.79,2.7-1.28,4.17-3a5.9,5.9,0,0,0,1.43-3.39,4.9,4.9,0,0,0-.52-2.6c-.65-1.21-1.31-1-1.7-2-.24-.59-.07-.9.39-3.78.28-1.68.32-2.19,0-2.47s-.62,0-1.82,0a15,15,0,0,1-3.26-.26,3.7,3.7,0,0,1-1.43-1.3,5.08,5.08,0,0,1-.57-2.62c-.07-1.68.3-2,0-2.46s-.8-.75-3.87-.7c-3.54,0-4.63.56-5.42-.21s-.11-1.8-1-2.64c-.68-.62-1.19-.17-3.84-.68a9.51,9.51,0,0,1-3-1,6,6,0,0,1-1.27-.89c-1.58-1.49-1.07-3.13-2-3.73S46,115.43,43.38,116.93Z"/><polygon class="cls-1" points="75.35 133.55 85.69 125.27 88.5 122.27 88.5 118.51 81.93 123.21 75.35 130.73 75.35 133.55"/><polygon class="cls-1" points="106.36 111.07 138.83 83.54 140.71 75.67 103.3 107.72 103.58 112.41 106.36 111.07"/><path class="cls-1" d="M116.76,135.51c.37,1.54.92,3.86,1.58,6.69,1.72,7.44,2.58,11.16,2.83,12.74,1.23,7.91.28,11.17,1.89,11.79,1.19.45,2-1.23,7.56-5.42,4.11-3.07,5.63-3.62,6.3-5.73.79-2.52-.85-3.42,0-5.74,1.09-3,4.23-2.69,6.29-5.73,1.52-2.24,1.33-4.62,1.26-7.33-.16-7.35,1-3,1.26-16.57.4-21.11-2.55-26,1.58-29.94,2.38-2.27,5.55-2.7,7.56-6.69.91-1.84.88-3,2.51-6.06,1.37-2.53,1.91-2.7,2.84-4.77,1.15-2.58,2.06-6.27.94-7-.65-.44-1.3.62-3.15.63-2.29,0-2.89-1.61-4.4-1.27s-1.39,2.2-3.47,3.5c-1.41.89-2.18.47-4.41,1-.54.12-4.22.93-6.3,3.19-1.69,1.84-1,3.72-1.57,9.55-.15,1.65-.08.22-1.26,8.29-1.88,12.85-1.38,11.81-2.2,16.24-1.93,10.36-3.13,7.73-6.3,20.39a11,11,0,0,1-3.15,6.06C122.32,135.58,118.8,135.66,116.76,135.51Z"/><polygon class="cls-1" points="157.18 67.11 199.61 30.82 197.76 26.52 152.25 67.11 157.18 67.11"/><path class="cls-1" d="M196.53,30c-1.52-2.45,1.4-6.64,3.31-9.37s4.74-6.69,9.92-8.45c1.87-.64,5.5-1.88,7.71,0,2,1.65,1.71,4.78,1.66,5.51-.2,2.54-1.5,4.26-2.76,5.88a21.66,21.66,0,0,1-7.9,6.06c-2.81,1.45-4.93,2.51-7.71,2.21C199.6,31.66,197.45,31.42,196.53,30Z"/><path class="cls-2" d="M200.53,25.22c-1-1.57.9-4.25,2.11-6s3-4.28,6.35-5.41c1.2-.41,3.52-1.2,4.94,0,1.25,1.06,1.1,3.06,1.06,3.53a6.89,6.89,0,0,1-1.76,3.76A13.76,13.76,0,0,1,208.17,25c-1.8.93-3.15,1.61-4.94,1.41C202.5,26.31,201.12,26.16,200.53,25.22Z"/><path class="cls-3" d="M206.78,18.17c-.3-.48.27-1.3.64-1.83a3.92,3.92,0,0,1,1.94-1.65c.37-.13,1.07-.37,1.51,0a1.31,1.31,0,0,1,.32,1.07,2.06,2.06,0,0,1-.54,1.15,4.31,4.31,0,0,1-1.54,1.19,2.57,2.57,0,0,1-1.51.43A1.13,1.13,0,0,1,206.78,18.17Z"/></svg>
