<svg id="Layer_1" data-name="Layer 1" xmlns="http://www.w3.org/2000/svg" viewBox="0 0 255.12 198.43"><defs><style>.cls-1{fill:none;stroke:#1d1d1b;stroke-miterlimit:10;stroke-width:3px;}</style></defs><title>fragt-bil</title><polyline class="cls-1" points="23.76 37.85 23.76 29.07 164.02 29.07 163.96 105.98 163.77 145.65 100.04 145.65"/><polyline class="cls-1" points="23.76 124.35 23.76 145.65 63.13 145.65"/><line class="cls-1" x1="163.77" y1="145.65" x2="188.98" y2="145.65"/><polyline class="cls-1" points="225.89 147.23 244.17 146.98 243.11 97.46 218.95 97.71 182.21 97.71 182.21 63.1 164.02 63.1"/><polyline class="cls-1" points="182.21 63.1 205.38 63.1 218.95 97.71"/><circle class="cls-1" cx="81.59" cy="145.65" r="18.46"/><circle class="cls-1" cx="207.43" cy="147.23" r="18.46"/><line class="cls-1" x1="24.05" y1="55.41" x2="115.79" y2="55.41"/><line class="cls-1" x1="24.05" y1="71.45" x2="98.83" y2="71.45"/><line class="cls-1" x1="24.05" y1="88.72" x2="82.17" y2="88.72"/><line class="cls-1" x1="24.05" y1="105.16" x2="65.99" y2="105.16"/></svg>
