<svg id="Layer_1" data-name="Layer 1" xmlns="http://www.w3.org/2000/svg" viewBox="0 0 283.46 283.46"><defs><style>.cls-1{fill:none;}.cls-1,.cls-2{stroke:#1d1d1b;stroke-miterlimit:10;}.cls-2,.cls-3,.cls-6{fill:#1d1d1b;}.cls-3,.cls-6{font-size:16.55px;letter-spacing:0.01em;}.cls-3{font-family:Roboto-Bold, Roboto;font-weight:700;}.cls-4{letter-spacing:0.02em;}.cls-5{letter-spacing:0em;}.cls-6{font-family:Roboto-Regular, Roboto;}.cls-7{letter-spacing:0.02em;}.cls-8{letter-spacing:0.01em;}</style></defs><title>logo</title><path class="cls-1" d="M213.46,60.46c.43-1.62,1.12-8.07,2.55-10.53a26.13,26.13,0,0,1,5.62-6.68c2.78-2.37,4.92-4.19,8.07-4.32.84,0,3.84-.16,5.76,2a6.86,6.86,0,0,1,1.29,5.67c-.39,2.42-1.84,4-3.23,5.45a20.2,20.2,0,0,1-4.76,3.67,75.84,75.84,0,0,1-12.35,6.09"/><path class="cls-1" d="M140.34,273.89a19.27,19.27,0,0,0,0-5.31,46.41,46.41,0,0,0-1.52-7.95c-1-3.82-1.91-6.49-2.54-8.44-1.84-5.72-1.73-6-3.87-13.1-1-3.26-2.76-8.71-4.7-14.38"/><path class="cls-1" d="M105.6,153.16,90.11,167c-2,.77-2.8.62-3.11.27a9,9,0,0,1-.57-1.1c-.13,0-.89.38-1.33,0a1.12,1.12,0,0,1-.32-.76,8.93,8.93,0,0,1-.18-1.88c.14-2.79.13-3.19-.16-3.42s-.46-.14-1.17-.08c-1,.08-2,.06-3,.15-2.25.19-3.38.29-4.34-.14a2.91,2.91,0,0,1-1.67-1.49c-.29-.82.21-1.35-.15-1.9-.09-.14-.37-.46-2.29-.59s-2.3.13-3.42-.2a5.13,5.13,0,0,1-1.53-.74,5.26,5.26,0,0,1-1.8-2.25c-.38-.91-.18-1.21-.67-2a3.26,3.26,0,0,0-1-1.12c-1-.58-2.39.1-3.78.81-3.32,1.7-5,2.55-5.9,3.13a35.14,35.14,0,0,0-5.26,3.76,26.61,26.61,0,0,0-4,4.61,20.12,20.12,0,0,0-3.08,5.49,17.73,17.73,0,0,0-.71,3.05,22.92,22.92,0,0,0-.19,4.31,24.06,24.06,0,0,0,.73,6.06,13.22,13.22,0,0,0,6.34,8.76,20.88,20.88,0,0,0,4.59,2.2c2.92,1,4.4,1.5,6.35,1.29a3.76,3.76,0,0,1,2.78.34c.21.16.43.39.91,1.38A19.51,19.51,0,0,1,63.36,198c.44,1.48.68,2.63.81,3.28.34,1.72.51,2.59.3,3.16-.3.84-.75.79-1.73,2.3-.17.26-.25.41-1,1.79l-1.35,2.55c-1,1.95-1.27,2.11-2.46,4.22-1.78,3.15-1.27,2.87-2.34,4.46-1.25,1.86-2.06,2.4-2.21,3.83a6.14,6.14,0,0,0,.42,2.53,39.15,39.15,0,0,0,1.59,4.91c2.26,5.26,2.37,7.71,5.94,15.85.27.59,1.52,3.44,3.41,7.15,2.76,5.47,5.16,9.39,8.71,15.18,1.18,1.92.85,1.49,2.75,4.45"/><path class="cls-1" d="M127.15,224.87c.77-.67,2.38-1.57,2.77-1.9,2.81-2.36,4.22-3.54,4.38-3.63a3,3,0,0,0,1.41-1.27,2.76,2.76,0,0,0,.11-1.74c-.27-1.44,0-2.92-.19-4.38-.08-.93-.08-2.51-.09-5.67,0-5.6.25-6,0-8.51a38.71,38.71,0,0,0-.79-4.72c-.6-2.74-1-3.45-1.51-6.13-.33-1.86-.18-1.8-.53-3.77-.33-1.8-.63-2.83-1.27-5.19-.56-2.11-1.08-4.24-1.63-6.36-1.6-6.13-1.65-6.31-1.77-7.06-.17-1-.08-.83-.58-6.73-.36-4.32-.44-4.9-.68-5.79a57,57,0,0,0-2.33-5.4c-1.65-3.6-2-4.34-3-4.92A6.11,6.11,0,0,0,118,141a9.58,9.58,0,0,0-4.11,1.37,17.47,17.47,0,0,0-4.45,3.14,14.38,14.38,0,0,0-2.32,3,6.6,6.6,0,0,0-1.13,3.09c-.06,1.89,1.13,2.37.76,3.42-.53,1.53-3.22,1-4.09,2.9a2.49,2.49,0,0,0,0,2.24,2.31,2.31,0,0,0,1.31.93c1.48.53,2.91,1.22,4.4,1.7a38.14,38.14,0,0,1,4.9,3.12c3.94,2.67,4.47,3.15,4.91,4.06a13.34,13.34,0,0,1,.77,3.66c.35,2.47.53,3.7.07,4.49-.64,1.09-1.81,1.17-4.82,2-1.59.42-3.14.94-6.23,2-3.9,1.31-3.59,1.57-7.64,2.95-4.77,1.63-4.37,1-6.36,2a10.89,10.89,0,0,1-4.59,1.49c-.57,0-2,.09-2.33-.61-.2-.42,0-1,.26-1.41a4.53,4.53,0,0,1,1.08-1.46c1.48-1.3,2.9-2.66,4.38-4,1-.9,1.41-1.26,1.64-1.91a3.68,3.68,0,0,0,0-2.44,4.73,4.73,0,0,0-1.25-1.65c-.84-.83-1.17-.81-1.46-1.31a2.86,2.86,0,0,1,.07-2.55L102.52,161"/><path class="cls-1" d="M130.91,169.87c.14.31-.06-.12,1.23,4.26,1.5,5.09,1.56,5,2.08,6.91s.36,1.82,1.24,5.77c1.43,6.41,1.73,6.31,1.87,8.42.24,3.57-.51,5.5.33,5.9.41.2,1-.11,3.89-2.61,3.66-3.14,3.29-3.1,5-4.48,2.9-2.31,4.19-2.62,4.57-4.23a16.1,16.1,0,0,0,.18-2.9c0-1.52-.25-1.78,0-2.43.28-.84.85-1,2.63-2.36,0,0,1.63-1.23,3.2-2.71s2.15-1.75,2.27-2.47c0-.11.07-.47.1-.86.07-.72.07-1.26.07-1.44,0-1.17.07-2.35.07-3.52,0-2.63.39-7.34.61-10.34.16-2.26.41-5.86.61-10.15.15-3.14.28-6.06.3-10a77.58,77.58,0,0,0-.12-8.13c-.51-2.78-1.41-4.88-.43-7.22a9.62,9.62,0,0,1,1.5-2.32,14.23,14.23,0,0,1,2.74-2,26.43,26.43,0,0,0,3.94-3.29,5.3,5.3,0,0,0,1.5-2c.43-1.51-.46-2.77.1-3.23s1.39.4,1.85,0,0-2.3,0-2.3a5.46,5.46,0,0,1,.88-2.93c.76-1,1.56-.59,2-1.41.33-.65-.1-1-.35-2.92-.22-1.7,0-2-.35-2.45s-1-.21-3.53-.1a30.49,30.49,0,0,1-4.15.07c-.89-.11-1.28-.24-1.69,0-.73.49-.3,1.53-1,2.62a4.39,4.39,0,0,1-2.13,1.42,17.39,17.39,0,0,1-3.67,1c-2.25.51-3.39.78-4,1.29s-.87,1.31-1.64,3.1a36.84,36.84,0,0,0-1.48,3.86,27.58,27.58,0,0,0-1,4.16,29.4,29.4,0,0,0-.23,4.46c-.07,3.8-.18,3.37-.21,6.3-.06,4.89.25,4.84.13,8.14a42.4,42.4,0,0,1-.81,7.23c-.83,3.94-1.5,3.75-2.64,8-1.23,4.62-.78,6.09-2.45,10-1.23,2.87-2.13,3.64-2.86,4s-2.24.54-5.36.85l-3.68.37c-.84,0-1.42-.16-1.69.18S130.42,168.74,130.91,169.87Z"/><line class="cls-1" x1="119.67" y1="141.01" x2="149.99" y2="114.96"/><line class="cls-2" x1="167.85" y1="99.85" x2="213.87" y2="60.07"/><line class="cls-1" x1="172.86" y1="100.07" x2="216.83" y2="61.45"/><path class="cls-1" d="M217,57.22c-1-1.12-.06-3.7.74-5A11.31,11.31,0,0,1,223.16,48c2.54-1.12,4-.93,4.78-2.33.66-1.12.16-1.95,1-2.79a3.23,3.23,0,0,1,3.58-.46c1.65.83,1.93,3,1.71,4.28s-.9,2-2.51,3.53c-3.22,3-4.84,4.56-6.79,5.55C223.93,56.26,218.61,59,217,57.22Z"/><path class="cls-1" d="M221.26,52.77a18.3,18.3,0,0,0,4.24-1.48,9.5,9.5,0,0,0,4.22-3.23,7.3,7.3,0,0,0,1.06-2.7"/><polyline class="cls-1" points="256.75 273.89 15.08 273.89 15.08 13.41 193.15 13.41 193.15 79.32"/><text class="cls-3" transform="translate(144.51 251.03)">COPEN<tspan class="cls-4" x="55.01" y="0">H</tspan><tspan class="cls-5" x="67.07" y="0">A</tspan><tspan x="78.25" y="0">GEN </tspan></text><text class="cls-6" transform="translate(201.62 268.57)">G<tspan class="cls-7" x="11.49" y="0">L</tspan><tspan class="cls-8" x="20.77" y="0">ASS</tspan></text></svg>
