<svg id="svg" version="1.1" xmlns="http://www.w3.org/2000/svg" xmlns:xlink="http://www.w3.org/1999/xlink" width="400" height="165.0429799426934" viewBox="0, 0, 400,165.0429799426934"><g id="svgg"><path id="path0" d="M99.697 53.639 C 87.542 58.922,87.106 59.213,87.106 62.057 C 87.106 65.924,107.798 114.391,109.772 115.149 C 111.921 115.974,134.504 107.143,136.549 104.679 C 137.938 103.006,137.657 101.214,134.440 91.223 C 133.718 88.982,141.273 88.943,146.991 91.159 C 148.806 91.862,148.997 90.999,148.997 82.093 C 148.997 72.432,148.942 72.236,145.997 71.497 C 143.866 70.962,142.341 69.259,140.728 65.612 L 138.457 60.480 132.552 61.036 C 129.305 61.342,125.763 61.966,124.681 62.422 C 123.106 63.087,122.079 61.919,119.523 56.555 C 115.490 48.089,113.232 47.757,99.697 53.639 M117.295 56.521 C 118.280 59.159,119.240 61.903,119.429 62.617 C 119.617 63.331,117.192 65.730,114.040 67.947 C 107.614 72.467,107.670 71.893,112.494 83.773 L 116.027 92.474 120.191 90.987 C 129.308 87.729,135.116 91.800,135.218 101.521 C 135.247 104.239,111.880 114.720,110.125 112.776 C 108.051 110.478,89.145 63.057,89.714 61.576 C 90.448 59.663,112.143 50.434,114.122 51.193 C 114.882 51.485,116.310 53.882,117.295 56.521 M181.638 78.009 C 179.502 84.439,178.309 84.412,176.354 77.889 C 174.204 70.711,171.664 71.895,168.872 81.375 C 167.011 87.693,166.837 89.398,168.052 89.398 C 168.925 89.398,170.161 87.150,170.898 84.221 C 172.672 77.175,173.460 77.105,175.860 83.778 C 178.317 90.613,179.884 90.492,182.119 83.296 C 184.223 76.520,184.891 76.574,186.709 83.668 C 187.659 87.375,188.790 89.398,189.913 89.398 C 191.004 89.398,191.398 88.744,190.973 87.637 C 190.601 86.668,189.492 83.104,188.507 79.717 C 186.077 71.357,184.017 70.845,181.638 78.009 M210.602 72.860 C 210.129 73.341,209.742 77.175,209.742 81.381 L 209.742 89.027 213.979 89.186 C 221.222 89.458,224.326 84.707,220.485 79.224 C 219.035 77.153,217.906 76.705,215.400 77.207 C 212.597 77.767,212.132 77.470,211.820 74.919 C 211.623 73.306,211.074 72.380,210.602 72.860 M231.519 80.198 C 231.519 86.465,231.923 88.479,233.287 89.003 C 235.660 89.913,236.857 88.547,235.167 86.858 C 234.421 86.112,233.811 82.798,233.811 79.495 C 233.811 76.191,233.295 73.169,232.665 72.779 C 231.942 72.333,231.519 75.072,231.519 80.198 M253.295 81.081 C 253.295 85.862,253.782 89.398,254.441 89.398 C 255.072 89.398,255.587 88.109,255.587 86.533 C 255.587 84.034,256.090 83.668,259.517 83.668 C 270.334 83.668,269.618 74.015,258.739 73.181 L 253.295 72.763 253.295 81.081 M263.516 76.615 C 265.002 79.391,263.035 81.375,258.797 81.375 C 255.661 81.375,254.112 77.502,256.351 75.263 C 257.903 73.711,262.418 74.564,263.516 76.615 M195.497 78.592 C 193.366 80.723,193.124 86.076,195.072 88.023 C 197.127 90.078,202.253 89.683,204.407 87.302 C 209.681 81.474,201.052 73.038,195.497 78.592 M225.788 83.095 C 225.788 86.562,226.304 89.398,226.934 89.398 C 227.564 89.398,228.080 86.562,228.080 83.095 C 228.080 79.628,227.564 76.791,226.934 76.791 C 226.304 76.791,225.788 79.628,225.788 83.095 M240.900 77.575 C 238.083 78.701,237.018 83.717,238.964 86.688 C 241.017 89.820,246.464 90.386,248.694 87.699 C 249.902 86.243,249.489 86.038,245.807 86.266 C 243.194 86.429,241.312 85.972,241.004 85.100 C 240.652 84.105,241.926 83.668,245.177 83.668 C 250.268 83.668,251.305 81.841,248.056 78.592 C 246.257 76.793,243.746 76.436,240.900 77.575 M271.179 78.952 C 268.978 81.384,268.770 86.351,270.798 88.034 C 272.997 89.859,283.269 89.215,282.534 87.299 C 282.212 86.459,281.948 83.861,281.948 81.525 C 281.948 76.506,274.913 74.825,271.179 78.952 M284.241 77.410 C 284.241 77.750,285.272 80.050,286.533 82.521 C 289.348 88.039,289.415 90.100,286.829 91.548 C 284.442 92.883,285.647 94.568,288.270 93.561 C 289.755 92.992,296.848 79.618,296.848 77.389 C 296.848 75.190,294.278 77.518,292.765 81.089 L 290.944 85.387 288.711 81.089 C 286.816 77.441,284.241 75.322,284.241 77.410 M202.905 81.449 C 204.412 84.265,202.634 87.106,199.364 87.106 C 196.761 87.106,195.339 82.966,197.180 80.747 C 199.128 78.400,201.423 78.681,202.905 81.449 M218.826 81.217 C 220.318 84.003,217.866 87.514,214.837 86.931 C 212.189 86.421,211.312 83.054,213.226 80.747 C 215.121 78.465,217.458 78.661,218.826 81.217 M246.833 80.802 C 247.328 82.093,246.644 82.521,244.090 82.521 C 240.836 82.521,239.814 81.485,241.452 79.847 C 242.837 78.462,246.161 79.052,246.833 80.802 M278.941 81.640 C 279.902 83.167,279.753 84.062,278.293 85.522 C 274.859 88.956,269.737 84.468,272.832 80.739 C 274.614 78.591,277.267 78.983,278.941 81.640 " stroke="none" fill="#000000" fill-rule="evenodd"></path></g></svg>
