<svg id="svg" version="1.1" xmlns="http://www.w3.org/2000/svg" xmlns:xlink="http://www.w3.org/1999/xlink" width="400" height="138.2198952879581" viewBox="0, 0, 400,138.2198952879581"><g id="svgg"><path id="path0" d="M37.539 26.209 C 34.776 26.869,35.531 24.313,26.130 64.816 C 17.838 100.543,17.716 98.645,28.282 98.217 L 35.943 97.906 38.803 87.252 C 40.376 81.393,41.932 76.164,42.261 75.632 C 42.590 75.100,47.469 74.641,53.105 74.613 C 77.578 74.491,89.529 65.068,89.529 45.892 C 89.529 35.468,88.087 32.526,81.059 28.605 C 76.976 26.326,44.535 24.541,37.539 26.209 M224.747 27.000 C 224.416 27.535,222.468 35.227,220.419 44.091 C 218.369 52.956,214.784 68.322,212.451 78.237 C 207.538 99.117,207.394 98.429,216.688 98.429 C 225.274 98.429,225.209 98.497,228.188 86.411 C 231.227 74.083,230.800 74.441,242.470 74.441 C 253.584 74.441,259.008 73.276,266.333 69.316 C 281.232 61.261,284.390 37.176,271.590 29.219 C 267.258 26.526,226.240 24.583,224.747 27.000 M352.012 27.533 C 349.723 30.291,335.407 95.372,336.648 97.380 C 337.005 97.957,340.474 98.429,344.359 98.429 L 351.421 98.429 356.486 77.225 C 359.273 65.563,363.074 49.811,364.934 42.220 C 367.337 32.414,367.991 28.096,367.194 27.299 C 365.578 25.682,353.392 25.870,352.012 27.533 M372.428 26.989 C 373.101 27.417,373.850 29.412,374.093 31.423 L 374.534 35.079 374.702 31.229 C 374.819 28.534,375.419 27.235,376.702 26.900 C 377.709 26.636,376.885 26.374,374.869 26.316 C 372.853 26.258,371.755 26.560,372.428 26.989 M379.839 26.793 C 379.409 27.223,379.113 29.263,379.181 31.326 L 379.305 35.079 380.059 31.937 L 380.812 28.796 381.619 31.675 C 382.063 33.259,382.837 34.555,383.340 34.555 C 383.842 34.555,384.595 33.259,385.013 31.675 L 385.772 28.796 386.479 31.937 C 387.124 34.799,387.198 34.682,387.311 30.628 C 387.458 25.347,386.059 24.804,384.613 29.581 L 383.583 32.984 382.102 29.498 C 381.287 27.580,380.269 26.363,379.839 26.793 M65.990 40.325 C 70.930 42.880,72.840 49.438,70.122 54.516 C 67.516 59.385,51.899 63.530,47.763 60.451 C 45.742 58.948,47.442 46.218,50.416 40.576 C 51.666 38.206,61.583 38.046,65.990 40.325 M255.518 40.325 C 261.770 43.558,262.787 51.691,257.551 56.582 C 251.413 62.317,235.602 63.434,235.602 58.133 C 235.602 54.447,238.731 41.591,240.000 40.061 C 241.527 38.221,251.787 38.396,255.518 40.325 M103.294 43.952 C 98.328 44.912,97.419 46.259,97.398 52.688 C 97.383 57.448,97.515 57.690,99.738 56.977 C 116.171 51.705,129.183 54.131,127.184 62.094 C 126.368 65.347,124.285 65.936,113.541 65.954 C 94.613 65.986,84.846 73.042,84.823 86.701 C 84.802 98.747,99.486 103.982,113.089 96.779 C 116.257 95.102,119.202 93.570,119.634 93.374 C 120.065 93.179,120.419 94.236,120.419 95.724 C 120.419 99.653,134.471 99.966,136.124 96.073 C 137.901 91.890,143.455 62.624,143.455 57.446 C 143.455 45.512,125.846 39.596,103.294 43.952 M151.149 44.543 C 150.809 45.429,152.791 58.033,155.554 72.553 C 161.558 104.110,161.658 100.391,154.509 111.658 C 147.349 122.944,147.374 123.037,157.654 123.037 L 165.919 123.037 173.548 110.995 C 187.232 89.393,213.613 45.328,213.613 44.073 C 213.613 43.212,211.059 42.938,205.025 43.151 L 196.437 43.455 186.209 59.686 C 180.584 68.613,175.767 76.387,175.505 76.963 C 174.378 79.441,172.858 74.183,170.697 60.332 C 169.428 52.202,167.906 44.961,167.313 44.241 C 165.649 42.219,151.942 42.475,151.149 44.543 M293.158 43.846 C 287.758 44.980,287.104 45.640,286.340 50.735 C 285.391 57.065,285.941 57.536,292.346 55.875 C 306.075 52.314,316.230 54.230,316.230 60.382 C 316.230 65.014,314.039 65.969,303.400 65.969 C 283.732 65.969,274.490 72.385,274.389 86.109 C 274.296 98.927,288.144 104.070,302.220 96.446 C 309.474 92.518,309.948 92.479,309.948 95.812 C 309.948 98.330,310.201 98.429,316.626 98.429 C 325.563 98.429,324.978 99.778,332.190 62.552 C 335.143 47.309,317.328 38.771,293.158 43.846 M123.494 73.742 C 124.870 75.400,123.528 81.897,121.187 84.907 C 115.397 92.354,100.940 89.904,101.759 81.615 C 102.326 75.870,105.926 74.150,121.076 72.389 C 121.725 72.313,122.813 72.922,123.494 73.742 M313.047 73.772 C 315.348 76.544,311.815 85.386,307.518 87.608 C 299.503 91.753,291.099 89.280,291.099 82.777 C 291.099 77.232,294.577 74.291,302.303 73.303 C 311.479 72.129,311.692 72.138,313.047 73.772 " stroke="none" fill="#000000" fill-rule="evenodd"></path></g></svg>
