<svg id="svg" version="1.1" xmlns="http://www.w3.org/2000/svg" xmlns:xlink="http://www.w3.org/1999/xlink" width="400" height="254.39999999999998" viewBox="0, 0, 400,254.39999999999998"><g id="svgg"><path id="path0" d="M6.758 7.420 C 6.542 7.983,6.463 15.813,6.583 24.822 L 6.800 41.200 200.000 41.200 L 393.200 41.200 393.200 24.000 L 393.200 6.800 200.176 6.598 C 44.011 6.435,7.076 6.592,6.758 7.420 M236.800 78.349 C 217.862 81.097,205.178 91.813,203.517 106.469 C 202.153 118.502,208.240 126.664,225.200 135.544 C 237.560 142.015,240.418 146.942,234.973 152.387 C 229.204 158.156,211.931 157.730,199.862 151.522 L 197.723 150.423 196.516 155.811 C 192.587 173.351,192.264 171.868,200.462 173.927 C 234.302 182.428,262.104 169.815,263.075 145.523 C 263.558 133.442,258.281 125.979,243.943 118.467 C 227.393 109.796,225.063 105.149,234.484 99.600 C 238.491 97.240,249.475 97.518,257.705 100.189 L 263.810 102.170 265.963 92.209 C 267.147 86.731,267.971 82.104,267.793 81.926 C 265.455 79.589,244.738 77.197,236.800 78.349 M45.600 81.169 C 45.600 81.874,46.950 82.685,49.000 83.213 C 62.645 86.722,72.261 91.038,74.022 94.443 C 74.920 96.179,95.200 173.065,95.200 174.733 C 95.200 175.011,101.158 175.140,108.440 175.019 L 121.680 174.800 141.240 128.070 C 151.998 102.369,160.800 81.039,160.800 80.670 C 160.800 80.302,155.070 80.000,148.066 80.000 L 135.332 80.000 124.353 107.800 C 118.314 123.090,112.831 137.040,112.167 138.800 C 111.503 140.560,110.687 142.308,110.354 142.686 C 109.663 143.469,109.591 143.133,103.554 110.829 C 98.692 84.817,98.787 85.141,95.157 82.086 L 92.677 80.000 69.139 80.000 C 49.025 80.000,45.600 80.170,45.600 81.169 M171.678 81.400 C 170.920 83.869,152.000 173.071,152.000 174.177 C 152.000 175.026,154.467 175.197,164.199 175.021 L 176.397 174.800 184.160 138.400 C 188.430 118.380,192.977 97.050,194.266 91.000 L 196.608 80.000 184.358 80.000 C 173.388 80.000,172.063 80.146,171.678 81.400 M303.128 81.826 C 300.822 83.379,267.549 159.177,262.745 173.820 C 262.310 175.147,263.134 175.226,275.310 175.020 L 288.340 174.800 290.770 167.803 L 293.200 160.806 308.946 160.803 C 326.391 160.800,324.861 160.298,326.006 166.400 C 326.295 167.940,326.876 170.550,327.297 172.200 L 328.062 175.200 339.231 175.200 C 345.374 175.200,350.412 174.930,350.427 174.600 C 350.442 174.270,346.054 152.850,340.676 127.000 L 330.897 80.000 318.367 80.000 C 306.645 80.000,305.662 80.118,303.128 81.826 M317.128 123.664 C 319.067 132.864,320.484 140.663,320.279 140.996 C 319.793 141.783,300.804 141.787,300.788 141.000 C 300.767 139.974,313.040 106.373,313.330 106.663 C 313.480 106.814,315.190 114.464,317.128 123.664 " stroke="none" fill="#000000" fill-rule="evenodd"></path></g></svg>
